<svg xmlns="http://www.w3.org/2000/svg" width="159.064" height="47.818" viewBox="0 0 159.064 47.818">
  <defs>
    <style>
      .cls-1 {
        fill: #213c1a;
      }

      .cls-2 {
        fill: #142011;
      }

      .cls-3 {
        fill: #152013;
      }
    </style>
  </defs>
  <g id="Group_4" data-name="Group 4" transform="translate(-203.382 -61.841)">
    <g id="Group_579" data-name="Group 579" transform="translate(270.188 89.825)">
      <path id="Path_513" data-name="Path 513" class="cls-1" d="M349.506,117.366a1.553,1.553,0,0,1,1.138.476,1.525,1.525,0,0,1,.475,1.137v8.716a7.634,7.634,0,0,1-15.267,0v-8.716a1.623,1.623,0,0,1,1.613-1.613,1.6,1.6,0,0,1,1.6,1.613v8.666a4.421,4.421,0,0,0,7.527,3.114,4.3,4.3,0,0,0,1.313-3.088v-8.691a1.6,1.6,0,0,1,1.6-1.613Z" transform="translate(-335.852 -117.348)"/>
      <path id="Path_514" data-name="Path 514" class="cls-1" d="M391.268,117.374a1.629,1.629,0,0,1,.888.575,1.556,1.556,0,0,1,.35,1v14.517a1.622,1.622,0,0,1-1.613,1.613,1.6,1.6,0,0,1-1.6-1.613v-7.728l-3.851,7.69c-.042.083-.083.162-.125.238a1.611,1.611,0,0,1-2.738,0,1.675,1.675,0,0,1-.138-.3l-3.826-7.628v7.728a1.525,1.525,0,0,1-.475,1.138,1.607,1.607,0,0,1-2.738-1.138V118.949a1.637,1.637,0,0,1,1.238-1.575,1.58,1.58,0,0,1,1.05.113,1.561,1.561,0,0,1,.763.737l5.5,10.991,5.5-10.991a1.63,1.63,0,0,1,1.813-.85Z" transform="translate(-355.455 -117.331)"/>
      <path id="Path_515" data-name="Path 515" class="cls-1" d="M434.462,117.374a1.628,1.628,0,0,1,.887.575,1.557,1.557,0,0,1,.35,1v14.517a1.623,1.623,0,0,1-1.613,1.613,1.6,1.6,0,0,1-1.6-1.613v-7.728l-3.851,7.69c-.042.083-.083.162-.125.238a1.611,1.611,0,0,1-2.738,0,1.713,1.713,0,0,1-.137-.3l-3.826-7.628v7.728a1.526,1.526,0,0,1-.476,1.138,1.607,1.607,0,0,1-2.738-1.138V118.949a1.636,1.636,0,0,1,1.238-1.575,1.58,1.58,0,0,1,1.05.113,1.563,1.563,0,0,1,.763.737l5.5,10.991,5.5-10.991a1.631,1.631,0,0,1,1.814-.85Z" transform="translate(-376.866 -117.331)"/>
      <path id="Path_516" data-name="Path 516" class="cls-1" d="M463.874,134.135a1.606,1.606,0,1,1-2.926-1.325l6.552-14.53a1.61,1.61,0,0,1,2.926,0l6.552,14.53a1.6,1.6,0,0,1-.813,2.126,1.53,1.53,0,0,1-1.225.037,1.562,1.562,0,0,1-.9-.838l-.963-2.163-.038.012h-8.19Zm7.752-5.364-2.664-5.915L466.3,128.77Z" transform="translate(-397.787 -117.336)"/>
      <path id="Path_517" data-name="Path 517" class="cls-1" d="M503.978,117.342a1.552,1.552,0,0,1,1.138.475,1.585,1.585,0,0,1,0,2.263,1.551,1.551,0,0,1-1.138.476h-3.5v12.916a1.6,1.6,0,0,1-2.738,1.138,1.524,1.524,0,0,1-.476-1.138V120.555h-3.489a1.607,1.607,0,0,1,0-3.213Z" transform="translate(-413.332 -117.336)"/>
    </g>
    <g id="Group_580" data-name="Group 580" transform="translate(269.935 67.349)">
      <path id="Path_518" data-name="Path 518" class="cls-1" d="M341.088,72.763a6.34,6.34,0,0,1,.038,12.678h-2.563v3.452a1.607,1.607,0,0,1-3.214,0V74.376a1.623,1.623,0,0,1,1.613-1.613h.075l.088.012.075-.012h3.888Zm-.012,9.465a2.985,2.985,0,0,0,2.176-.925,3.109,3.109,0,0,0,0-4.4,2.986,2.986,0,0,0-2.176-.925h-2.513v6.251h2.513Z" transform="translate(-335.349 -72.763)"/>
      <path id="Path_519" data-name="Path 519" class="cls-1" d="M369.706,75.976V79.99h5.177a1.607,1.607,0,0,1,0,3.213h-5.177v4.088h6.815a1.6,1.6,0,0,1,1.613,1.6,1.622,1.622,0,0,1-1.613,1.613h-8.415a1.622,1.622,0,0,1-1.613-1.613V74.376a1.622,1.622,0,0,1,1.613-1.613h8.415a1.607,1.607,0,0,1,0,3.213Z" transform="translate(-350.787 -72.763)"/>
      <path id="Path_520" data-name="Path 520" class="cls-1" d="M405.766,72.763a8.872,8.872,0,0,1,.05,17.743h-5.352a1.622,1.622,0,0,1-1.613-1.613V74.364a1.6,1.6,0,0,1,1.613-1.6Zm-.013,14.529a5.649,5.649,0,0,0,3.963-9.64,5.427,5.427,0,0,0-3.963-1.675h-3.689V87.292Z" transform="translate(-366.826 -72.763)"/>
      <path id="Path_521" data-name="Path 521" class="cls-1" d="M451.013,72.787a1.552,1.552,0,0,1,1.137.475,1.527,1.527,0,0,1,.476,1.138v8.716a7.634,7.634,0,0,1-15.268,0V74.4a1.623,1.623,0,0,1,1.613-1.613,1.6,1.6,0,0,1,1.6,1.613v8.666a4.421,4.421,0,0,0,7.527,3.114,4.3,4.3,0,0,0,1.313-3.088V74.4a1.6,1.6,0,0,1,1.6-1.613Z" transform="translate(-385.914 -72.775)"/>
      <path id="Path_522" data-name="Path 522" class="cls-1" d="M485.872,87.292a1.579,1.579,0,0,1,1.6,1.6,1.6,1.6,0,0,1-1.6,1.613h-7.353a1.623,1.623,0,0,1-1.613-1.613V74.376a1.607,1.607,0,0,1,3.214,0V87.292Z" transform="translate(-405.517 -72.763)"/>
      <path id="Path_523" data-name="Path 523" class="cls-1" d="M508.746,72.763a1.623,1.623,0,0,1,1.6,1.613V88.893a1.526,1.526,0,0,1-.476,1.138,1.606,1.606,0,0,1-2.738-1.138V74.376a1.622,1.622,0,0,1,1.613-1.613Z" transform="translate(-420.5 -72.763)"/>
    </g>
    <g id="Group_588" data-name="Group 588" transform="translate(203.382 61.841)">
      <g id="Group_583" data-name="Group 583">
        <g id="Group_581" data-name="Group 581" transform="translate(0 1.184)">
          <path id="Path_524" data-name="Path 524" class="cls-2" d="M235.257,110.823A23.368,23.368,0,0,1,229,110c-9.065-2.526-12.855-11.113-13.412-12.494L203.382,70.516,219.655,64.2l.779-.009c4.627-.06,11.631,2.907,11.995,11.255h0a11.8,11.8,0,0,1-4.462,9.276c-2.3,1.949-5.1,5.514-5.569,7.039l1.155,2.579c.013.033,2.351,5.9,7.749,7.407,8.5,2.367,16.523-2.9,18.318-7.565,2.2-5.731-1.938-13.565-3.721-16.1l6.994-4.958c.371.522,9.043,12.919,4.729,24.136C254.2,106.149,244.282,110.823,235.257,110.823ZM214.924,75.232l3.284,7.263a37.633,37.633,0,0,1,4.221-4.318,3.671,3.671,0,0,0,1.428-2.309l-.03-.179.035.122V75.8a2.844,2.844,0,0,0-2.709-2.984Zm8.939.584v0Z" transform="translate(-203.382 -64.189)"/>
        </g>
        <g id="Group_582" data-name="Group 582" transform="translate(2.508)">
          <path id="Path_525" data-name="Path 525" class="cls-1" d="M240.076,108.474a23.368,23.368,0,0,1-6.256-.818c-9.081-2.53-12.869-11.143-13.415-12.5L208.356,68.288l16.1-6.438.8-.009h.114c4.623,0,11.521,2.976,11.881,11.256h0a11.8,11.8,0,0,1-4.462,9.276c-2.3,1.944-5.086,5.5-5.566,7.028l1.152,2.59c.013.032,2.351,5.9,7.748,7.407,8.5,2.368,16.524-2.9,18.318-7.565,2.2-5.726-2.121-13.764-3.972-16.378l6.977-4.981c.383.534,9.315,13.211,5,24.437C259.021,103.8,249.1,108.474,240.076,108.474ZM219.834,72.931l3.221,7.182a37.687,37.687,0,0,1,4.193-4.284,3.669,3.669,0,0,0,1.428-2.31l-.03-.178.036.122v-.015a2.842,2.842,0,0,0-2.69-2.98Zm8.848.537v-.01A.03.03,0,0,0,228.682,73.467Z" transform="translate(-208.356 -61.841)"/>
        </g>
      </g>
      <g id="Group_584" data-name="Group 584" transform="translate(34.957 20.62)">
        <rect id="Rectangle_84" data-name="Rectangle 84" class="cls-3" width="6.232" height="6.232" transform="translate(2.314 0) rotate(21.793)"/>
      </g>
      <g id="Group_585" data-name="Group 585" transform="translate(25.797 25.095)">
        <rect id="Rectangle_85" data-name="Rectangle 85" class="cls-3" width="6.211" height="6.211" transform="translate(2.009 0) rotate(18.872)"/>
      </g>
      <g id="Group_586" data-name="Group 586" transform="translate(26.632 25.358)">
        <rect id="Rectangle_86" data-name="Rectangle 86" class="cls-1" width="5.543" height="5.543" transform="translate(1.793 0) rotate(18.872)"/>
      </g>
      <g id="Group_587" data-name="Group 587" transform="translate(35.859 20.885)">
        <rect id="Rectangle_87" data-name="Rectangle 87" class="cls-1" width="5.543" height="5.543" transform="translate(2.058) rotate(21.793)"/>
      </g>
    </g>
  </g>
</svg>
